<svg xmlns="http://www.w3.org/2000/svg" xmlns:xlink="http://www.w3.org/1999/xlink" width="157" zoomAndPan="magnify" viewBox="0 0 117.75 52.499999" height="70" preserveAspectRatio="xMidYMid meet" version="1.0"><defs><g/><clipPath id="2c988afb19"><path d="M 91.066406 1.652344 L 109.394531 1.652344 L 109.394531 35.082031 L 91.066406 35.082031 Z M 91.066406 1.652344 " clip-rule="nonzero"/></clipPath><clipPath id="e1c1d5624d"><path d="M 92.902344 5.328125 L 109.394531 5.328125 L 109.394531 20.683594 L 92.902344 20.683594 Z M 92.902344 5.328125 " clip-rule="nonzero"/></clipPath><clipPath id="19d213a85e"><path d="M 68.914062 34.039062 L 70.945312 34.039062 L 70.945312 34.738281 L 68.914062 34.738281 Z M 68.914062 34.039062 " clip-rule="nonzero"/></clipPath><clipPath id="a45e6451f7"><path d="M 104.945312 38.839844 L 107.851562 38.839844 L 107.851562 39.785156 L 104.945312 39.785156 Z M 104.945312 38.839844 " clip-rule="nonzero"/></clipPath></defs><g clip-path="url(#2c988afb19)"><path fill="#23d0e1" d="M 101.03125 19.195312 C 90.632812 20.417969 89.207031 28.039062 92.933594 35.378906 C 91.382812 27.847656 94.226562 23 100.125 21.742188 C 103.816406 20.953125 108.574219 19.277344 109.289062 14.988281 C 109.300781 14.910156 109.308594 14.824219 109.316406 14.742188 C 107.621094 17.4375 104.738281 18.761719 101.03125 19.195312 Z M 106.265625 5.746094 C 106.789062 4.222656 107.039062 4.042969 108.652344 4.039062 C 107.128906 3.511719 106.949219 3.261719 106.941406 1.652344 C 106.417969 3.175781 106.167969 3.355469 104.554688 3.359375 C 106.078125 3.882812 106.257812 4.136719 106.265625 5.746094 " fill-opacity="1" fill-rule="nonzero"/></g><g clip-path="url(#e1c1d5624d)"><path fill="#70e0ff" d="M 100.191406 12.886719 C 101.464844 12.886719 102.496094 11.855469 102.496094 10.582031 C 102.496094 9.308594 101.464844 8.277344 100.191406 8.277344 C 98.917969 8.277344 97.886719 9.308594 97.886719 10.582031 C 97.886719 11.855469 98.917969 12.886719 100.191406 12.886719 Z M 108.101562 5.375 C 109.71875 8.203125 107.492188 12.480469 99.898438 14.488281 C 95.34375 15.695312 93.550781 18.179688 92.964844 20.570312 C 94.511719 18.878906 96.949219 17.449219 100.378906 16.832031 C 104.09375 16.164062 108.753906 14.125 109.34375 9.816406 C 109.546875 8.359375 109.152344 6.695312 108.101562 5.375 " fill-opacity="1" fill-rule="nonzero"/></g><path stroke-linecap="round" transform="matrix(0.742925, 0, 0, 0.742925, 3.740042, 49.610164)" fill="none" stroke-linejoin="miter" d="M 0.502391 0.498441 L 141.762114 0.498441 " stroke="#ffffff" stroke-width="1" stroke-opacity="1" stroke-miterlimit="4"/><g fill="#2db2bf" fill-opacity="1"><g transform="translate(75.855565, 46.394325)"><g><path d="M 6.171875 -12.375 C 7.910156 -12.375 9.25 -11.835938 10.1875 -10.765625 C 11.125 -9.691406 11.59375 -8.15625 11.59375 -6.15625 C 11.59375 -4.144531 11.125 -2.597656 10.1875 -1.515625 C 9.25 -0.441406 7.910156 0.09375 6.171875 0.09375 C 4.421875 0.09375 3.070312 -0.441406 2.125 -1.515625 C 1.1875 -2.597656 0.71875 -4.144531 0.71875 -6.15625 C 0.71875 -8.15625 1.1875 -9.691406 2.125 -10.765625 C 3.070312 -11.835938 4.421875 -12.375 6.171875 -12.375 Z M 6.171875 -10.09375 C 5.378906 -10.09375 4.804688 -9.785156 4.453125 -9.171875 C 4.097656 -8.554688 3.921875 -7.546875 3.921875 -6.140625 C 3.921875 -4.742188 4.097656 -3.734375 4.453125 -3.109375 C 4.804688 -2.492188 5.378906 -2.1875 6.171875 -2.1875 C 6.941406 -2.1875 7.503906 -2.5 7.859375 -3.125 C 8.210938 -3.75 8.390625 -4.753906 8.390625 -6.140625 C 8.390625 -7.535156 8.210938 -8.539062 7.859375 -9.15625 C 7.503906 -9.78125 6.941406 -10.09375 6.171875 -10.09375 Z M 6.171875 -10.09375 "/></g></g></g><g fill="#ffffff" fill-opacity="1"><g transform="translate(1.40387, 39.488602)"><g><path d="M 7.890625 -13.765625 C 8.648438 -13.765625 9.296875 -13.65625 9.828125 -13.4375 C 10.367188 -13.21875 10.894531 -12.914062 11.40625 -12.53125 C 11.53125 -12.414062 11.648438 -12.359375 11.765625 -12.359375 C 12.015625 -12.359375 12.175781 -12.738281 12.25 -13.5 L 12.703125 -13.5 C 12.648438 -12.59375 12.625 -11.003906 12.625 -8.734375 L 12.1875 -8.734375 C 12.09375 -9.742188 11.925781 -10.539062 11.6875 -11.125 C 11.445312 -11.71875 11.023438 -12.207031 10.421875 -12.59375 C 9.828125 -12.976562 9.238281 -13.171875 8.65625 -13.171875 C 7.332031 -13.171875 6.40625 -12.535156 5.875 -11.265625 C 5.34375 -9.992188 5.078125 -8.472656 5.078125 -6.703125 C 5.078125 -4.941406 5.34375 -3.425781 5.875 -2.15625 C 6.40625 -0.882812 7.332031 -0.25 8.65625 -0.25 C 9.238281 -0.25 9.828125 -0.4375 10.421875 -0.8125 C 11.023438 -1.1875 11.445312 -1.679688 11.6875 -2.296875 C 11.925781 -2.921875 12.09375 -3.804688 12.1875 -4.953125 L 12.625 -4.953125 C 12.625 -2.578125 12.648438 -0.925781 12.703125 0 L 12.25 0 C 12.21875 -0.40625 12.164062 -0.691406 12.09375 -0.859375 C 12.019531 -1.035156 11.921875 -1.125 11.796875 -1.125 C 11.691406 -1.125 11.5625 -1.070312 11.40625 -0.96875 C 10.832031 -0.5625 10.285156 -0.253906 9.765625 -0.046875 C 9.242188 0.160156 8.613281 0.265625 7.875 0.265625 C 6.4375 0.265625 5.175781 -0.00390625 4.09375 -0.546875 C 3.019531 -1.097656 2.179688 -1.890625 1.578125 -2.921875 C 0.984375 -3.960938 0.6875 -5.203125 0.6875 -6.640625 C 0.6875 -8.035156 0.988281 -9.269531 1.59375 -10.34375 C 2.207031 -11.425781 3.0625 -12.265625 4.15625 -12.859375 C 5.25 -13.460938 6.492188 -13.765625 7.890625 -13.765625 Z M 7.890625 -13.765625 "/></g></g></g><g fill="#ffffff" fill-opacity="1"><g transform="translate(15.073687, 39.488602)"><g><path d="M 7.890625 -13.765625 C 9.328125 -13.765625 10.582031 -13.488281 11.65625 -12.9375 C 12.738281 -12.394531 13.578125 -11.601562 14.171875 -10.5625 C 14.773438 -9.53125 15.078125 -8.296875 15.078125 -6.859375 C 15.078125 -5.460938 14.769531 -4.222656 14.15625 -3.140625 C 13.550781 -2.066406 12.703125 -1.226562 11.609375 -0.625 C 10.515625 -0.03125 9.269531 0.265625 7.875 0.265625 C 6.4375 0.265625 5.175781 -0.00390625 4.09375 -0.546875 C 3.019531 -1.097656 2.179688 -1.890625 1.578125 -2.921875 C 0.984375 -3.960938 0.6875 -5.203125 0.6875 -6.640625 C 0.6875 -8.035156 0.988281 -9.269531 1.59375 -10.34375 C 2.207031 -11.425781 3.0625 -12.265625 4.15625 -12.859375 C 5.25 -13.460938 6.492188 -13.765625 7.890625 -13.765625 Z M 7.8125 -13.421875 C 7.1875 -13.421875 6.632812 -13.132812 6.15625 -12.5625 C 5.6875 -12 5.320312 -11.207031 5.0625 -10.1875 C 4.8125 -9.175781 4.6875 -8.015625 4.6875 -6.703125 C 4.6875 -5.390625 4.832031 -4.226562 5.125 -3.21875 C 5.414062 -2.21875 5.804688 -1.441406 6.296875 -0.890625 C 6.796875 -0.347656 7.347656 -0.078125 7.953125 -0.078125 C 8.578125 -0.078125 9.125 -0.359375 9.59375 -0.921875 C 10.070312 -1.484375 10.4375 -2.273438 10.6875 -3.296875 C 10.945312 -4.316406 11.078125 -5.476562 11.078125 -6.78125 C 11.078125 -8.101562 10.929688 -9.265625 10.640625 -10.265625 C 10.347656 -11.273438 9.953125 -12.050781 9.453125 -12.59375 C 8.960938 -13.144531 8.414062 -13.421875 7.8125 -13.421875 Z M 7.8125 -13.421875 "/></g></g></g><g fill="#ffffff" fill-opacity="1"><g transform="translate(30.840686, 39.488602)"><g><path d="M 13.5 -13.109375 C 13.101562 -13.023438 12.804688 -12.890625 12.609375 -12.703125 C 12.421875 -12.515625 12.296875 -12.226562 12.234375 -11.84375 C 12.171875 -11.46875 12.140625 -10.898438 12.140625 -10.140625 L 12.140625 0 C 11.890625 -0.0195312 11.679688 -0.03125 11.515625 -0.03125 C 11.367188 -0.03125 11.132812 -0.0195312 10.8125 0 L 2.359375 -9.21875 L 2.359375 -3.734375 C 2.359375 -2.796875 2.394531 -2.117188 2.46875 -1.703125 C 2.550781 -1.296875 2.722656 -0.992188 2.984375 -0.796875 C 3.242188 -0.609375 3.679688 -0.46875 4.296875 -0.375 L 4.296875 0 C 3.765625 -0.0390625 3.050781 -0.0625 2.15625 -0.0625 C 1.476562 -0.0625 0.953125 -0.0390625 0.578125 0 L 0.578125 -0.375 C 0.960938 -0.46875 1.25 -0.601562 1.4375 -0.78125 C 1.632812 -0.96875 1.765625 -1.253906 1.828125 -1.640625 C 1.890625 -2.023438 1.921875 -2.597656 1.921875 -3.359375 L 1.921875 -11.46875 C 1.921875 -11.957031 1.882812 -12.304688 1.8125 -12.515625 C 1.75 -12.734375 1.628906 -12.878906 1.453125 -12.953125 C 1.273438 -13.035156 0.984375 -13.085938 0.578125 -13.109375 L 0.578125 -13.5 C 0.953125 -13.457031 1.476562 -13.4375 2.15625 -13.4375 C 2.84375 -13.4375 3.425781 -13.457031 3.90625 -13.5 L 11.703125 -5.265625 L 11.703125 -9.765625 C 11.703125 -10.703125 11.660156 -11.375 11.578125 -11.78125 C 11.503906 -12.195312 11.335938 -12.5 11.078125 -12.6875 C 10.816406 -12.882812 10.382812 -13.023438 9.78125 -13.109375 L 9.78125 -13.5 C 10.300781 -13.457031 11.015625 -13.4375 11.921875 -13.4375 C 12.585938 -13.4375 13.113281 -13.457031 13.5 -13.5 Z M 13.5 -13.109375 "/></g></g></g><g fill="#ffffff" fill-opacity="1"><g transform="translate(44.796484, 39.488602)"><g><path d="M 7.890625 -13.765625 C 8.648438 -13.765625 9.296875 -13.65625 9.828125 -13.4375 C 10.367188 -13.21875 10.894531 -12.914062 11.40625 -12.53125 C 11.53125 -12.414062 11.648438 -12.359375 11.765625 -12.359375 C 12.015625 -12.359375 12.175781 -12.738281 12.25 -13.5 L 12.703125 -13.5 C 12.648438 -12.59375 12.625 -11.003906 12.625 -8.734375 L 12.1875 -8.734375 C 12.09375 -9.742188 11.925781 -10.539062 11.6875 -11.125 C 11.445312 -11.71875 11.023438 -12.207031 10.421875 -12.59375 C 9.828125 -12.976562 9.238281 -13.171875 8.65625 -13.171875 C 7.332031 -13.171875 6.40625 -12.535156 5.875 -11.265625 C 5.34375 -9.992188 5.078125 -8.472656 5.078125 -6.703125 C 5.078125 -4.941406 5.34375 -3.425781 5.875 -2.15625 C 6.40625 -0.882812 7.332031 -0.25 8.65625 -0.25 C 9.238281 -0.25 9.828125 -0.4375 10.421875 -0.8125 C 11.023438 -1.1875 11.445312 -1.679688 11.6875 -2.296875 C 11.925781 -2.921875 12.09375 -3.804688 12.1875 -4.953125 L 12.625 -4.953125 C 12.625 -2.578125 12.648438 -0.925781 12.703125 0 L 12.25 0 C 12.21875 -0.40625 12.164062 -0.691406 12.09375 -0.859375 C 12.019531 -1.035156 11.921875 -1.125 11.796875 -1.125 C 11.691406 -1.125 11.5625 -1.070312 11.40625 -0.96875 C 10.832031 -0.5625 10.285156 -0.253906 9.765625 -0.046875 C 9.242188 0.160156 8.613281 0.265625 7.875 0.265625 C 6.4375 0.265625 5.175781 -0.00390625 4.09375 -0.546875 C 3.019531 -1.097656 2.179688 -1.890625 1.578125 -2.921875 C 0.984375 -3.960938 0.6875 -5.203125 0.6875 -6.640625 C 0.6875 -8.035156 0.988281 -9.269531 1.59375 -10.34375 C 2.207031 -11.425781 3.0625 -12.265625 4.15625 -12.859375 C 5.25 -13.460938 6.492188 -13.765625 7.890625 -13.765625 Z M 7.890625 -13.765625 "/></g></g></g><g fill="#ffffff" fill-opacity="1"><g transform="translate(58.466299, 39.488602)"><g><path d="M 7.296875 -13.109375 C 6.835938 -13.085938 6.503906 -13.035156 6.296875 -12.953125 C 6.085938 -12.878906 5.941406 -12.734375 5.859375 -12.515625 C 5.785156 -12.304688 5.75 -11.957031 5.75 -11.46875 L 5.75 -1.640625 C 5.75 -1.285156 5.773438 -1.023438 5.828125 -0.859375 C 5.878906 -0.691406 5.96875 -0.578125 6.09375 -0.515625 C 6.226562 -0.460938 6.441406 -0.4375 6.734375 -0.4375 L 7.359375 -0.4375 C 7.804688 -0.4375 8.289062 -0.65625 8.8125 -1.09375 C 9.332031 -1.539062 9.800781 -2.128906 10.21875 -2.859375 C 10.632812 -3.597656 10.914062 -4.359375 11.0625 -5.140625 L 11.5 -5.140625 C 11.457031 -4.679688 11.4375 -4.097656 11.4375 -3.390625 C 11.4375 -2.015625 11.484375 -0.882812 11.578125 0 C 10.710938 -0.0390625 9.253906 -0.0625 7.203125 -0.0625 C 4.234375 -0.0625 2.007812 -0.0390625 0.53125 0 L 0.53125 -0.375 C 0.9375 -0.40625 1.234375 -0.457031 1.421875 -0.53125 C 1.609375 -0.601562 1.734375 -0.75 1.796875 -0.96875 C 1.859375 -1.1875 1.890625 -1.535156 1.890625 -2.015625 L 1.890625 -11.46875 C 1.890625 -11.957031 1.851562 -12.304688 1.78125 -12.515625 C 1.707031 -12.734375 1.582031 -12.878906 1.40625 -12.953125 C 1.226562 -13.035156 0.9375 -13.085938 0.53125 -13.109375 L 0.53125 -13.5 C 1.257812 -13.457031 2.390625 -13.4375 3.921875 -13.4375 C 5.390625 -13.4375 6.515625 -13.457031 7.296875 -13.5 Z M 7.296875 -13.109375 "/></g></g></g><g fill="#ffffff" fill-opacity="1"><g transform="translate(70.401176, 39.488602)"><g><path d="M 12.203125 -1.59375 C 12.367188 -1.1875 12.546875 -0.882812 12.734375 -0.6875 C 12.929688 -0.5 13.128906 -0.394531 13.328125 -0.375 L 13.328125 0 C 12.410156 -0.0390625 11.253906 -0.0625 9.859375 -0.0625 C 8.410156 -0.0625 7.34375 -0.0390625 6.65625 0 L 6.65625 -0.375 C 7.132812 -0.40625 7.472656 -0.46875 7.671875 -0.5625 C 7.878906 -0.65625 7.984375 -0.820312 7.984375 -1.0625 C 7.984375 -1.289062 7.910156 -1.597656 7.765625 -1.984375 L 6.640625 -5.109375 L 2.78125 -5.109375 L 2.453125 -4.25 C 2.035156 -3.164062 1.828125 -2.335938 1.828125 -1.765625 C 1.828125 -1.242188 1.972656 -0.890625 2.265625 -0.703125 C 2.554688 -0.515625 2.988281 -0.40625 3.5625 -0.375 L 3.5625 0 C 2.613281 -0.0390625 1.78125 -0.0625 1.0625 -0.0625 C 0.46875 -0.0625 -0.0195312 -0.0390625 -0.40625 0 L -0.40625 -0.375 C -0.0820312 -0.425781 0.21875 -0.625 0.5 -0.96875 C 0.78125 -1.3125 1.066406 -1.859375 1.359375 -2.609375 L 5.578125 -13.5 C 5.992188 -13.46875 6.332031 -13.453125 6.59375 -13.453125 C 6.851562 -13.453125 7.1875 -13.46875 7.59375 -13.5 Z M 6.5 -5.484375 L 4.765625 -10.25 L 2.9375 -5.484375 Z M 6.5 -5.484375 "/></g></g></g><g fill="#ffffff" fill-opacity="1"><g transform="translate(83.594362, 39.488602)"><g><path d="M 11.96875 -13.4375 C 12.570312 -13.4375 13.0625 -13.457031 13.4375 -13.5 L 13.4375 -13.109375 C 13.101562 -12.953125 12.769531 -12.65625 12.4375 -12.21875 C 12.101562 -11.789062 11.800781 -11.203125 11.53125 -10.453125 L 7.8125 0 C 7.40625 -0.0195312 7.070312 -0.03125 6.8125 -0.03125 C 6.550781 -0.03125 6.21875 -0.0195312 5.8125 0 L 0.8125 -11.890625 C 0.65625 -12.296875 0.476562 -12.597656 0.28125 -12.796875 C 0.0820312 -12.992188 -0.113281 -13.097656 -0.3125 -13.109375 L -0.3125 -13.5 C 0.601562 -13.457031 1.765625 -13.4375 3.171875 -13.4375 C 4.617188 -13.4375 5.679688 -13.457031 6.359375 -13.5 L 6.359375 -13.109375 C 5.878906 -13.085938 5.535156 -13.03125 5.328125 -12.9375 C 5.128906 -12.851562 5.03125 -12.675781 5.03125 -12.40625 C 5.03125 -12.1875 5.109375 -11.890625 5.265625 -11.515625 L 8.5625 -3.390625 L 10.40625 -8.578125 C 10.820312 -9.742188 11.03125 -10.6875 11.03125 -11.40625 C 11.03125 -12.507812 10.507812 -13.078125 9.46875 -13.109375 L 9.46875 -13.5 C 10.425781 -13.457031 11.257812 -13.4375 11.96875 -13.4375 Z M 11.96875 -13.4375 "/></g></g></g><g fill="#ffffff" fill-opacity="1"><g transform="translate(96.806616, 39.488602)"><g><path d="M 11.4375 -3.203125 C 11.4375 -1.910156 11.484375 -0.84375 11.578125 0 C 10.710938 -0.0390625 9.253906 -0.0625 7.203125 -0.0625 C 4.234375 -0.0625 2.007812 -0.0390625 0.53125 0 L 0.53125 -0.375 C 0.9375 -0.40625 1.234375 -0.457031 1.421875 -0.53125 C 1.609375 -0.601562 1.734375 -0.75 1.796875 -0.96875 C 1.859375 -1.1875 1.890625 -1.535156 1.890625 -2.015625 L 1.890625 -11.46875 C 1.890625 -11.957031 1.851562 -12.304688 1.78125 -12.515625 C 1.707031 -12.734375 1.582031 -12.878906 1.40625 -12.953125 C 1.226562 -13.035156 0.9375 -13.085938 0.53125 -13.109375 L 0.53125 -13.5 C 2.007812 -13.457031 4.234375 -13.4375 7.203125 -13.4375 C 9.078125 -13.4375 10.40625 -13.457031 11.1875 -13.5 C 11.101562 -12.300781 11.0625 -11.234375 11.0625 -10.296875 C 11.0625 -9.710938 11.078125 -9.253906 11.109375 -8.921875 L 10.671875 -8.921875 C 10.441406 -10.390625 10.015625 -11.445312 9.390625 -12.09375 C 8.773438 -12.738281 8.035156 -13.0625 7.171875 -13.0625 L 6.921875 -13.0625 C 6.578125 -13.0625 6.320312 -13.03125 6.15625 -12.96875 C 6 -12.914062 5.890625 -12.804688 5.828125 -12.640625 C 5.773438 -12.484375 5.75 -12.222656 5.75 -11.859375 L 5.75 -6.984375 L 5.953125 -6.984375 C 6.609375 -6.984375 7.171875 -7.242188 7.640625 -7.765625 C 8.109375 -8.285156 8.410156 -8.863281 8.546875 -9.5 L 8.984375 -9.5 C 8.941406 -8.957031 8.921875 -8.359375 8.921875 -7.703125 L 8.921875 -6.78125 C 8.921875 -6.132812 8.957031 -5.234375 9.03125 -4.078125 L 8.59375 -4.078125 C 8.476562 -4.804688 8.179688 -5.40625 7.703125 -5.875 C 7.234375 -6.351562 6.648438 -6.59375 5.953125 -6.59375 L 5.75 -6.59375 L 5.75 -1.640625 C 5.75 -1.273438 5.773438 -1.007812 5.828125 -0.84375 C 5.890625 -0.6875 6 -0.578125 6.15625 -0.515625 C 6.320312 -0.460938 6.578125 -0.4375 6.921875 -0.4375 L 7.546875 -0.4375 C 8.285156 -0.4375 8.984375 -0.796875 9.640625 -1.515625 C 10.304688 -2.234375 10.78125 -3.378906 11.0625 -4.953125 L 11.5 -4.953125 C 11.457031 -4.492188 11.4375 -3.910156 11.4375 -3.203125 Z M 11.4375 -3.203125 "/></g></g></g><g fill="#ffffff" fill-opacity="1"><g transform="translate(4.565607, 22.293342)"><g><path d="M 0.109375 -4.5625 L 4.109375 -4.5625 L 4.109375 -4.109375 L 2.671875 -4.109375 L 2.671875 0 L 2.21875 0 L 2.21875 -4.109375 L 2 -4.109375 L 2 0 L 1.5625 0 L 1.5625 -4.109375 L 0.109375 -4.109375 Z M 0.109375 -5.21875 L 4.109375 -5.21875 L 4.109375 -4.78125 L 0.109375 -4.78125 Z M 0.109375 -5.21875 "/></g></g></g><g fill="#ffffff" fill-opacity="1"><g transform="translate(8.818521, 22.293342)"><g><path d="M 0.5625 -4.5625 L 4.109375 -4.5625 L 4.109375 -4.109375 L 1.671875 -4.109375 L 1.671875 -3.21875 L 4 -3.21875 L 4 -2.78125 L 1.671875 -2.78125 L 1.671875 -2.5625 L 4 -2.5625 L 4 -2.109375 L 1.671875 -2.109375 L 1.671875 -1.109375 L 4.21875 -1.109375 L 4.21875 -0.671875 L 1.671875 -0.671875 L 1.671875 -0.4375 L 4.21875 -0.4375 L 4.21875 0 L 1.21875 0 L 1.21875 -4.109375 L 1 -4.109375 L 1 0 L 0.5625 0 Z M 0.5625 -5.21875 L 4.109375 -5.21875 L 4.109375 -4.78125 L 0.5625 -4.78125 Z M 0.5625 -5.21875 "/></g></g></g><g fill="#ffffff" fill-opacity="1"><g transform="translate(13.486352, 22.293342)"><g><path d="M 2.5625 -5.21875 L 3.15625 -5.21875 L 4.984375 0 L 4.515625 0 L 2.859375 -4.703125 L 2.734375 -4.359375 L 4.265625 0 L 3.796875 0 L 3.40625 -1.109375 L 1.59375 -1.109375 L 1.21875 0 L 0.75 0 Z M 1.859375 -5.21875 L 2.328125 -5.21875 L 0.5 0 L 0.03125 0 Z M 2 -2.21875 L 3.015625 -2.21875 L 2.515625 -3.703125 Z M 1.75 -1.5625 L 3.25 -1.5625 L 3.171875 -1.78125 L 1.84375 -1.78125 Z M 1.75 -1.5625 "/></g></g></g><g fill="#ffffff" fill-opacity="1"><g transform="translate(18.487601, 22.293342)"><g><path d="M 4.53125 -4.34375 C 4.332031 -4.507812 4.101562 -4.640625 3.84375 -4.734375 C 3.59375 -4.835938 3.328125 -4.890625 3.046875 -4.890625 C 2.734375 -4.890625 2.4375 -4.828125 2.15625 -4.703125 C 1.882812 -4.585938 1.644531 -4.425781 1.4375 -4.21875 C 1.238281 -4.007812 1.078125 -3.765625 0.953125 -3.484375 C 0.835938 -3.210938 0.78125 -2.921875 0.78125 -2.609375 C 0.78125 -2.296875 0.835938 -2 0.953125 -1.71875 C 1.078125 -1.4375 1.238281 -1.191406 1.4375 -0.984375 C 1.644531 -0.785156 1.882812 -0.625 2.15625 -0.5 C 2.4375 -0.382812 2.734375 -0.328125 3.046875 -0.328125 C 3.367188 -0.328125 3.664062 -0.390625 3.9375 -0.515625 C 4.21875 -0.640625 4.460938 -0.800781 4.671875 -1 L 5.03125 -0.75 C 4.78125 -0.476562 4.484375 -0.265625 4.140625 -0.109375 C 3.804688 0.0351562 3.441406 0.109375 3.046875 0.109375 C 2.671875 0.109375 2.316406 0.0390625 1.984375 -0.09375 C 1.660156 -0.238281 1.375 -0.429688 1.125 -0.671875 C 0.882812 -0.921875 0.691406 -1.210938 0.546875 -1.546875 C 0.398438 -1.878906 0.328125 -2.234375 0.328125 -2.609375 C 0.328125 -2.984375 0.398438 -3.332031 0.546875 -3.65625 C 0.691406 -3.988281 0.882812 -4.28125 1.125 -4.53125 C 1.375 -4.78125 1.660156 -4.972656 1.984375 -5.109375 C 2.316406 -5.253906 2.671875 -5.328125 3.046875 -5.328125 C 3.398438 -5.328125 3.726562 -5.265625 4.03125 -5.140625 C 4.34375 -5.023438 4.625 -4.851562 4.875 -4.625 Z M 3.984375 -3.921875 C 3.859375 -4.015625 3.710938 -4.085938 3.546875 -4.140625 C 3.390625 -4.191406 3.222656 -4.21875 3.046875 -4.21875 C 2.816406 -4.21875 2.601562 -4.175781 2.40625 -4.09375 C 2.21875 -4.007812 2.050781 -3.894531 1.90625 -3.75 C 1.757812 -3.601562 1.644531 -3.429688 1.5625 -3.234375 C 1.476562 -3.035156 1.4375 -2.828125 1.4375 -2.609375 C 1.4375 -2.390625 1.476562 -2.179688 1.5625 -1.984375 C 1.644531 -1.785156 1.757812 -1.613281 1.90625 -1.46875 C 2.050781 -1.320312 2.21875 -1.207031 2.40625 -1.125 C 2.601562 -1.039062 2.816406 -1 3.046875 -1 C 3.253906 -1 3.445312 -1.03125 3.625 -1.09375 C 3.800781 -1.164062 3.960938 -1.269531 4.109375 -1.40625 L 4.484375 -1.140625 C 4.296875 -0.953125 4.078125 -0.804688 3.828125 -0.703125 C 3.585938 -0.609375 3.328125 -0.5625 3.046875 -0.5625 C 2.765625 -0.5625 2.5 -0.613281 2.25 -0.71875 C 2 -0.820312 1.78125 -0.96875 1.59375 -1.15625 C 1.414062 -1.34375 1.269531 -1.5625 1.15625 -1.8125 C 1.050781 -2.0625 1 -2.328125 1 -2.609375 C 1 -2.890625 1.050781 -3.15625 1.15625 -3.40625 C 1.269531 -3.65625 1.414062 -3.875 1.59375 -4.0625 C 1.78125 -4.25 2 -4.394531 2.25 -4.5 C 2.5 -4.613281 2.765625 -4.671875 3.046875 -4.671875 C 3.296875 -4.671875 3.53125 -4.628906 3.75 -4.546875 C 3.96875 -4.460938 4.164062 -4.347656 4.34375 -4.203125 Z M 3.984375 -3.921875 "/></g></g></g><g fill="#ffffff" fill-opacity="1"><g transform="translate(23.562941, 22.293342)"><g><path d="M 4 -2.21875 L 1.671875 -2.21875 L 1.671875 0 L 1.21875 0 L 1.21875 -5.21875 L 1.671875 -5.21875 L 1.671875 -3.328125 L 4 -3.328125 L 4 -5.21875 L 4.4375 -5.21875 L 4.4375 0 L 4 0 Z M 0.5625 -5.21875 L 1 -5.21875 L 1 0 L 0.5625 0 Z M 4.671875 -5.21875 L 5.109375 -5.21875 L 5.109375 0 L 4.671875 0 Z M 1.671875 -2.671875 L 4 -2.671875 L 4 -2.890625 L 1.671875 -2.890625 Z M 1.671875 -2.671875 "/></g></g></g><g fill="#ffffff" fill-opacity="1"><g transform="translate(29.186567, 22.293342)"><g><path d="M 0.5625 -4.5625 L 4.109375 -4.5625 L 4.109375 -4.109375 L 1.671875 -4.109375 L 1.671875 -3.21875 L 4 -3.21875 L 4 -2.78125 L 1.671875 -2.78125 L 1.671875 -2.5625 L 4 -2.5625 L 4 -2.109375 L 1.671875 -2.109375 L 1.671875 -1.109375 L 4.21875 -1.109375 L 4.21875 -0.671875 L 1.671875 -0.671875 L 1.671875 -0.4375 L 4.21875 -0.4375 L 4.21875 0 L 1.21875 0 L 1.21875 -4.109375 L 1 -4.109375 L 1 0 L 0.5625 0 Z M 0.5625 -5.21875 L 4.109375 -5.21875 L 4.109375 -4.78125 L 0.5625 -4.78125 Z M 0.5625 -5.21875 "/></g></g></g><g fill="#ffffff" fill-opacity="1"><g transform="translate(33.854398, 22.293342)"><g><path d="M 4.015625 0 L 2.9375 -2 C 2.914062 -2 2.894531 -2 2.875 -2 C 2.863281 -2 2.851562 -2 2.84375 -2 L 2.671875 -2 L 3.75 0 L 3.25 0 L 2.15625 -2 L 1.671875 -2 L 1.671875 0 L 1.21875 0 L 1.21875 -4.109375 L 1 -4.109375 L 1 0 L 0.5625 0 L 0.5625 -4.5625 L 2.84375 -4.5625 C 2.96875 -4.5625 3.085938 -4.535156 3.203125 -4.484375 C 3.316406 -4.429688 3.414062 -4.359375 3.5 -4.265625 C 3.59375 -4.179688 3.660156 -4.082031 3.703125 -3.96875 C 3.753906 -3.863281 3.78125 -3.742188 3.78125 -3.609375 C 3.78125 -3.472656 3.753906 -3.347656 3.703125 -3.234375 C 3.660156 -3.117188 3.59375 -3.019531 3.5 -2.9375 C 3.414062 -2.851562 3.316406 -2.785156 3.203125 -2.734375 C 3.085938 -2.691406 2.96875 -2.671875 2.84375 -2.671875 L 1.671875 -2.671875 L 1.671875 -2.4375 L 2.84375 -2.4375 C 3 -2.4375 3.144531 -2.46875 3.28125 -2.53125 C 3.425781 -2.59375 3.550781 -2.675781 3.65625 -2.78125 C 3.769531 -2.882812 3.851562 -3.003906 3.90625 -3.140625 C 3.96875 -3.285156 4 -3.441406 4 -3.609375 C 4 -3.765625 3.96875 -3.910156 3.90625 -4.046875 C 3.851562 -4.191406 3.769531 -4.316406 3.65625 -4.421875 C 3.550781 -4.535156 3.425781 -4.625 3.28125 -4.6875 C 3.144531 -4.75 3 -4.78125 2.84375 -4.78125 L 0.5625 -4.78125 L 0.5625 -5.21875 L 2.84375 -5.21875 C 3.0625 -5.21875 3.265625 -5.175781 3.453125 -5.09375 C 3.648438 -5.007812 3.820312 -4.894531 3.96875 -4.75 C 4.125 -4.601562 4.242188 -4.429688 4.328125 -4.234375 C 4.410156 -4.035156 4.453125 -3.828125 4.453125 -3.609375 C 4.453125 -3.429688 4.425781 -3.265625 4.375 -3.109375 C 4.320312 -2.953125 4.242188 -2.804688 4.140625 -2.671875 C 4.046875 -2.535156 3.929688 -2.414062 3.796875 -2.3125 C 3.671875 -2.21875 3.535156 -2.144531 3.390625 -2.09375 L 4.53125 0 Z M 1.671875 -4.109375 L 1.671875 -3.109375 L 2.84375 -3.109375 C 2.976562 -3.109375 3.09375 -3.15625 3.1875 -3.25 C 3.289062 -3.34375 3.34375 -3.460938 3.34375 -3.609375 C 3.34375 -3.753906 3.289062 -3.875 3.1875 -3.96875 C 3.09375 -4.0625 2.976562 -4.109375 2.84375 -4.109375 Z M 1.671875 -4.109375 "/></g></g></g><g fill="#ffffff" fill-opacity="1"><g transform="translate(38.655598, 22.293342)"><g/></g></g><g fill="#ffffff" fill-opacity="1"><g transform="translate(40.848735, 22.293342)"><g><path d="M 1.21875 -5.21875 L 1.671875 -5.21875 L 1.671875 -1.109375 L 3.890625 -1.109375 L 3.890625 -0.671875 L 1.671875 -0.671875 L 1.671875 -0.4375 L 3.890625 -0.4375 L 3.890625 0 L 1.21875 0 Z M 0.5625 -5.21875 L 1 -5.21875 L 1 0 L 0.5625 0 Z M 0.5625 -5.21875 "/></g></g></g><g fill="#ffffff" fill-opacity="1"><g transform="translate(44.827506, 22.293342)"><g><path d="M 0.5625 -4.5625 L 4.109375 -4.5625 L 4.109375 -4.109375 L 1.671875 -4.109375 L 1.671875 -3.21875 L 4 -3.21875 L 4 -2.78125 L 1.671875 -2.78125 L 1.671875 -2.5625 L 4 -2.5625 L 4 -2.109375 L 1.671875 -2.109375 L 1.671875 -1.109375 L 4.21875 -1.109375 L 4.21875 -0.671875 L 1.671875 -0.671875 L 1.671875 -0.4375 L 4.21875 -0.4375 L 4.21875 0 L 1.21875 0 L 1.21875 -4.109375 L 1 -4.109375 L 1 0 L 0.5625 0 Z M 0.5625 -5.21875 L 4.109375 -5.21875 L 4.109375 -4.78125 L 0.5625 -4.78125 Z M 0.5625 -5.21875 "/></g></g></g><g fill="#ffffff" fill-opacity="1"><g transform="translate(49.495335, 22.293342)"><g><path d="M 2.5625 -5.21875 L 3.15625 -5.21875 L 4.984375 0 L 4.515625 0 L 2.859375 -4.703125 L 2.734375 -4.359375 L 4.265625 0 L 3.796875 0 L 3.40625 -1.109375 L 1.59375 -1.109375 L 1.21875 0 L 0.75 0 Z M 1.859375 -5.21875 L 2.328125 -5.21875 L 0.5 0 L 0.03125 0 Z M 2 -2.21875 L 3.015625 -2.21875 L 2.515625 -3.703125 Z M 1.75 -1.5625 L 3.25 -1.5625 L 3.171875 -1.78125 L 1.84375 -1.78125 Z M 1.75 -1.5625 "/></g></g></g><g fill="#ffffff" fill-opacity="1"><g transform="translate(54.496586, 22.293342)"><g><path d="M 1.21875 -4.109375 L 1 -4.109375 L 1 0 L 0.5625 0 L 0.5625 -4.5625 L 2.640625 -4.5625 C 2.921875 -4.5625 3.1875 -4.507812 3.4375 -4.40625 C 3.695312 -4.300781 3.914062 -4.160156 4.09375 -3.984375 C 4.28125 -3.804688 4.425781 -3.597656 4.53125 -3.359375 C 4.644531 -3.128906 4.703125 -2.878906 4.703125 -2.609375 C 4.703125 -2.335938 4.644531 -2.082031 4.53125 -1.84375 C 4.425781 -1.601562 4.28125 -1.394531 4.09375 -1.21875 C 3.914062 -1.050781 3.695312 -0.914062 3.4375 -0.8125 C 3.1875 -0.71875 2.921875 -0.671875 2.640625 -0.671875 L 1.671875 -0.671875 L 1.671875 -0.4375 L 2.640625 -0.4375 C 2.960938 -0.4375 3.257812 -0.492188 3.53125 -0.609375 C 3.8125 -0.722656 4.050781 -0.875 4.25 -1.0625 C 4.457031 -1.257812 4.617188 -1.488281 4.734375 -1.75 C 4.859375 -2.007812 4.921875 -2.296875 4.921875 -2.609375 C 4.921875 -2.910156 4.859375 -3.191406 4.734375 -3.453125 C 4.617188 -3.710938 4.457031 -3.941406 4.25 -4.140625 C 4.050781 -4.335938 3.8125 -4.492188 3.53125 -4.609375 C 3.257812 -4.722656 2.960938 -4.78125 2.640625 -4.78125 L 0.5625 -4.78125 L 0.5625 -5.21875 L 2.640625 -5.21875 C 3.015625 -5.21875 3.367188 -5.148438 3.703125 -5.015625 C 4.035156 -4.878906 4.320312 -4.691406 4.5625 -4.453125 C 4.8125 -4.222656 5.007812 -3.945312 5.15625 -3.625 C 5.300781 -3.3125 5.375 -2.972656 5.375 -2.609375 C 5.375 -2.242188 5.300781 -1.898438 5.15625 -1.578125 C 5.007812 -1.265625 4.8125 -0.988281 4.5625 -0.75 C 4.320312 -0.519531 4.035156 -0.335938 3.703125 -0.203125 C 3.367188 -0.0664062 3.015625 0 2.640625 0 L 1.21875 0 Z M 1.671875 -4.109375 L 1.671875 -1.109375 L 2.640625 -1.109375 C 2.859375 -1.109375 3.066406 -1.144531 3.265625 -1.21875 C 3.460938 -1.300781 3.632812 -1.40625 3.78125 -1.53125 C 3.925781 -1.664062 4.039062 -1.820312 4.125 -2 C 4.207031 -2.1875 4.25 -2.390625 4.25 -2.609375 C 4.25 -2.816406 4.207031 -3.007812 4.125 -3.1875 C 4.039062 -3.375 3.925781 -3.535156 3.78125 -3.671875 C 3.632812 -3.804688 3.460938 -3.910156 3.265625 -3.984375 C 3.066406 -4.066406 2.859375 -4.109375 2.640625 -4.109375 Z M 1.671875 -4.109375 "/></g></g></g><g fill="#ffffff" fill-opacity="1"><g transform="translate(60.12021, 22.293342)"><g><path d="M 0.5625 -4.5625 L 4.109375 -4.5625 L 4.109375 -4.109375 L 1.671875 -4.109375 L 1.671875 -3.21875 L 4 -3.21875 L 4 -2.78125 L 1.671875 -2.78125 L 1.671875 -2.5625 L 4 -2.5625 L 4 -2.109375 L 1.671875 -2.109375 L 1.671875 -1.109375 L 4.21875 -1.109375 L 4.21875 -0.671875 L 1.671875 -0.671875 L 1.671875 -0.4375 L 4.21875 -0.4375 L 4.21875 0 L 1.21875 0 L 1.21875 -4.109375 L 1 -4.109375 L 1 0 L 0.5625 0 Z M 0.5625 -5.21875 L 4.109375 -5.21875 L 4.109375 -4.78125 L 0.5625 -4.78125 Z M 0.5625 -5.21875 "/></g></g></g><g fill="#ffffff" fill-opacity="1"><g transform="translate(64.788043, 22.293342)"><g><path d="M 4.015625 0 L 2.9375 -2 C 2.914062 -2 2.894531 -2 2.875 -2 C 2.863281 -2 2.851562 -2 2.84375 -2 L 2.671875 -2 L 3.75 0 L 3.25 0 L 2.15625 -2 L 1.671875 -2 L 1.671875 0 L 1.21875 0 L 1.21875 -4.109375 L 1 -4.109375 L 1 0 L 0.5625 0 L 0.5625 -4.5625 L 2.84375 -4.5625 C 2.96875 -4.5625 3.085938 -4.535156 3.203125 -4.484375 C 3.316406 -4.429688 3.414062 -4.359375 3.5 -4.265625 C 3.59375 -4.179688 3.660156 -4.082031 3.703125 -3.96875 C 3.753906 -3.863281 3.78125 -3.742188 3.78125 -3.609375 C 3.78125 -3.472656 3.753906 -3.347656 3.703125 -3.234375 C 3.660156 -3.117188 3.59375 -3.019531 3.5 -2.9375 C 3.414062 -2.851562 3.316406 -2.785156 3.203125 -2.734375 C 3.085938 -2.691406 2.96875 -2.671875 2.84375 -2.671875 L 1.671875 -2.671875 L 1.671875 -2.4375 L 2.84375 -2.4375 C 3 -2.4375 3.144531 -2.46875 3.28125 -2.53125 C 3.425781 -2.59375 3.550781 -2.675781 3.65625 -2.78125 C 3.769531 -2.882812 3.851562 -3.003906 3.90625 -3.140625 C 3.96875 -3.285156 4 -3.441406 4 -3.609375 C 4 -3.765625 3.96875 -3.910156 3.90625 -4.046875 C 3.851562 -4.191406 3.769531 -4.316406 3.65625 -4.421875 C 3.550781 -4.535156 3.425781 -4.625 3.28125 -4.6875 C 3.144531 -4.75 3 -4.78125 2.84375 -4.78125 L 0.5625 -4.78125 L 0.5625 -5.21875 L 2.84375 -5.21875 C 3.0625 -5.21875 3.265625 -5.175781 3.453125 -5.09375 C 3.648438 -5.007812 3.820312 -4.894531 3.96875 -4.75 C 4.125 -4.601562 4.242188 -4.429688 4.328125 -4.234375 C 4.410156 -4.035156 4.453125 -3.828125 4.453125 -3.609375 C 4.453125 -3.429688 4.425781 -3.265625 4.375 -3.109375 C 4.320312 -2.953125 4.242188 -2.804688 4.140625 -2.671875 C 4.046875 -2.535156 3.929688 -2.414062 3.796875 -2.3125 C 3.671875 -2.21875 3.535156 -2.144531 3.390625 -2.09375 L 4.53125 0 Z M 1.671875 -4.109375 L 1.671875 -3.109375 L 2.84375 -3.109375 C 2.976562 -3.109375 3.09375 -3.15625 3.1875 -3.25 C 3.289062 -3.34375 3.34375 -3.460938 3.34375 -3.609375 C 3.34375 -3.753906 3.289062 -3.875 3.1875 -3.96875 C 3.09375 -4.0625 2.976562 -4.109375 2.84375 -4.109375 Z M 1.671875 -4.109375 "/></g></g></g><g fill="#ffffff" fill-opacity="1"><g transform="translate(69.589242, 22.293342)"><g><path d="M 3.1875 -4.4375 C 3.070312 -4.5625 2.921875 -4.664062 2.734375 -4.75 C 2.546875 -4.832031 2.335938 -4.875 2.109375 -4.875 C 1.929688 -4.875 1.765625 -4.84375 1.609375 -4.78125 C 1.460938 -4.726562 1.328125 -4.648438 1.203125 -4.546875 C 1.085938 -4.453125 0.992188 -4.332031 0.921875 -4.1875 C 0.859375 -4.050781 0.828125 -3.894531 0.828125 -3.71875 C 0.828125 -3.601562 0.84375 -3.484375 0.875 -3.359375 C 0.914062 -3.242188 0.96875 -3.132812 1.03125 -3.03125 C 1.09375 -2.9375 1.171875 -2.851562 1.265625 -2.78125 C 1.359375 -2.707031 1.460938 -2.65625 1.578125 -2.625 L 2.515625 -2.375 C 2.609375 -2.351562 2.691406 -2.3125 2.765625 -2.25 C 2.835938 -2.1875 2.898438 -2.113281 2.953125 -2.03125 C 3.003906 -1.945312 3.046875 -1.859375 3.078125 -1.765625 C 3.109375 -1.671875 3.125 -1.578125 3.125 -1.484375 C 3.125 -1.347656 3.085938 -1.222656 3.015625 -1.109375 C 2.953125 -0.992188 2.863281 -0.894531 2.75 -0.8125 C 2.644531 -0.738281 2.519531 -0.675781 2.375 -0.625 C 2.226562 -0.582031 2.078125 -0.5625 1.921875 -0.5625 C 1.691406 -0.5625 1.476562 -0.601562 1.28125 -0.6875 C 1.082031 -0.769531 0.925781 -0.875 0.8125 -1 L 1.171875 -1.265625 C 1.242188 -1.203125 1.347656 -1.140625 1.484375 -1.078125 C 1.617188 -1.023438 1.765625 -1 1.921875 -1 C 2.140625 -1 2.316406 -1.046875 2.453125 -1.140625 C 2.597656 -1.234375 2.671875 -1.359375 2.671875 -1.515625 C 2.671875 -1.617188 2.640625 -1.710938 2.578125 -1.796875 C 2.523438 -1.878906 2.453125 -1.929688 2.359375 -1.953125 L 1.421875 -2.21875 C 1.253906 -2.257812 1.109375 -2.328125 0.984375 -2.421875 C 0.859375 -2.523438 0.75 -2.644531 0.65625 -2.78125 C 0.570312 -2.914062 0.503906 -3.0625 0.453125 -3.21875 C 0.410156 -3.375 0.390625 -3.535156 0.390625 -3.703125 C 0.390625 -3.941406 0.4375 -4.160156 0.53125 -4.359375 C 0.625 -4.566406 0.75 -4.738281 0.90625 -4.875 C 1.0625 -5.019531 1.242188 -5.128906 1.453125 -5.203125 C 1.671875 -5.285156 1.894531 -5.328125 2.125 -5.328125 C 2.414062 -5.328125 2.679688 -5.269531 2.921875 -5.15625 C 3.171875 -5.039062 3.378906 -4.894531 3.546875 -4.71875 Z M 2.6875 -4 C 2.632812 -4.0625 2.554688 -4.113281 2.453125 -4.15625 C 2.347656 -4.195312 2.234375 -4.21875 2.109375 -4.21875 C 1.929688 -4.21875 1.785156 -4.164062 1.671875 -4.0625 C 1.554688 -3.96875 1.5 -3.84375 1.5 -3.6875 C 1.5 -3.59375 1.523438 -3.5 1.578125 -3.40625 C 1.640625 -3.320312 1.71875 -3.273438 1.8125 -3.265625 L 2.75 -2.984375 C 2.914062 -2.953125 3.0625 -2.882812 3.1875 -2.78125 C 3.320312 -2.6875 3.429688 -2.570312 3.515625 -2.4375 C 3.609375 -2.300781 3.675781 -2.148438 3.71875 -1.984375 C 3.769531 -1.828125 3.796875 -1.671875 3.796875 -1.515625 C 3.796875 -1.265625 3.742188 -1.039062 3.640625 -0.84375 C 3.535156 -0.644531 3.398438 -0.472656 3.234375 -0.328125 C 3.066406 -0.191406 2.867188 -0.0820312 2.640625 0 C 2.421875 0.0703125 2.191406 0.109375 1.953125 0.109375 C 1.597656 0.109375 1.273438 0.046875 0.984375 -0.078125 C 0.691406 -0.210938 0.457031 -0.378906 0.28125 -0.578125 L 0.65625 -0.84375 C 0.78125 -0.707031 0.957031 -0.585938 1.1875 -0.484375 C 1.414062 -0.390625 1.660156 -0.34375 1.921875 -0.34375 C 2.109375 -0.34375 2.285156 -0.367188 2.453125 -0.421875 C 2.628906 -0.472656 2.78125 -0.546875 2.90625 -0.640625 C 3.039062 -0.742188 3.144531 -0.863281 3.21875 -1 C 3.300781 -1.144531 3.34375 -1.304688 3.34375 -1.484375 C 3.34375 -1.722656 3.28125 -1.945312 3.15625 -2.15625 C 3.03125 -2.375 2.84375 -2.519531 2.59375 -2.59375 L 1.671875 -2.84375 C 1.472656 -2.894531 1.320312 -3.003906 1.21875 -3.171875 C 1.113281 -3.347656 1.0625 -3.53125 1.0625 -3.71875 C 1.0625 -3.863281 1.085938 -3.992188 1.140625 -4.109375 C 1.203125 -4.222656 1.28125 -4.320312 1.375 -4.40625 C 1.476562 -4.488281 1.59375 -4.550781 1.71875 -4.59375 C 1.851562 -4.632812 1.992188 -4.65625 2.140625 -4.65625 C 2.328125 -4.65625 2.492188 -4.617188 2.640625 -4.546875 C 2.796875 -4.472656 2.921875 -4.390625 3.015625 -4.296875 Z M 2.6875 -4 "/></g></g></g><g fill="#ffffff" fill-opacity="1"><g transform="translate(73.842156, 22.293342)"><g><path d="M 4 -2.21875 L 1.671875 -2.21875 L 1.671875 0 L 1.21875 0 L 1.21875 -5.21875 L 1.671875 -5.21875 L 1.671875 -3.328125 L 4 -3.328125 L 4 -5.21875 L 4.4375 -5.21875 L 4.4375 0 L 4 0 Z M 0.5625 -5.21875 L 1 -5.21875 L 1 0 L 0.5625 0 Z M 4.671875 -5.21875 L 5.109375 -5.21875 L 5.109375 0 L 4.671875 0 Z M 1.671875 -2.671875 L 4 -2.671875 L 4 -2.890625 L 1.671875 -2.890625 Z M 1.671875 -2.671875 "/></g></g></g><g fill="#ffffff" fill-opacity="1"><g transform="translate(79.46578, 22.293342)"><g><path d="M 1.21875 -5.21875 L 1.671875 -5.21875 L 1.671875 0 L 1.21875 0 Z M 0.5625 -5.21875 L 1 -5.21875 L 1 0 L 0.5625 0 Z M 0.5625 -5.21875 "/></g></g></g><g fill="#ffffff" fill-opacity="1"><g transform="translate(81.658924, 22.293342)"><g><path d="M 2.84375 -4.5625 C 2.96875 -4.5625 3.085938 -4.535156 3.203125 -4.484375 C 3.316406 -4.429688 3.414062 -4.359375 3.5 -4.265625 C 3.59375 -4.179688 3.660156 -4.082031 3.703125 -3.96875 C 3.753906 -3.863281 3.78125 -3.742188 3.78125 -3.609375 C 3.78125 -3.472656 3.753906 -3.347656 3.703125 -3.234375 C 3.660156 -3.117188 3.59375 -3.019531 3.5 -2.9375 C 3.414062 -2.851562 3.316406 -2.785156 3.203125 -2.734375 C 3.085938 -2.691406 2.96875 -2.671875 2.84375 -2.671875 L 1.671875 -2.671875 L 1.671875 -2.4375 L 2.84375 -2.4375 C 3 -2.4375 3.144531 -2.46875 3.28125 -2.53125 C 3.425781 -2.59375 3.550781 -2.675781 3.65625 -2.78125 C 3.769531 -2.882812 3.851562 -3.003906 3.90625 -3.140625 C 3.96875 -3.285156 4 -3.441406 4 -3.609375 C 4 -3.765625 3.96875 -3.910156 3.90625 -4.046875 C 3.851562 -4.191406 3.769531 -4.316406 3.65625 -4.421875 C 3.550781 -4.535156 3.425781 -4.625 3.28125 -4.6875 C 3.144531 -4.75 3 -4.78125 2.84375 -4.78125 L 0.5625 -4.78125 L 0.5625 -5.21875 L 2.84375 -5.21875 C 3.0625 -5.21875 3.265625 -5.175781 3.453125 -5.09375 C 3.648438 -5.007812 3.820312 -4.894531 3.96875 -4.75 C 4.125 -4.601562 4.242188 -4.429688 4.328125 -4.234375 C 4.410156 -4.035156 4.453125 -3.828125 4.453125 -3.609375 C 4.453125 -3.390625 4.410156 -3.179688 4.328125 -2.984375 C 4.242188 -2.785156 4.125 -2.613281 3.96875 -2.46875 C 3.820312 -2.320312 3.648438 -2.207031 3.453125 -2.125 C 3.265625 -2.039062 3.0625 -2 2.84375 -2 L 1.671875 -2 L 1.671875 0 L 1.21875 0 L 1.21875 -4.109375 L 1 -4.109375 L 1 0 L 0.5625 0 L 0.5625 -4.5625 Z M 1.671875 -4.109375 L 1.671875 -3.109375 L 2.84375 -3.109375 C 2.976562 -3.109375 3.09375 -3.15625 3.1875 -3.25 C 3.289062 -3.34375 3.34375 -3.460938 3.34375 -3.609375 C 3.34375 -3.753906 3.289062 -3.875 3.1875 -3.96875 C 3.09375 -4.0625 2.976562 -4.109375 2.84375 -4.109375 Z M 1.671875 -4.109375 "/></g></g></g><path stroke-linecap="round" transform="matrix(0.742925, 0, 0, 0.742925, 3.740042, 23.804632)" fill="none" stroke-linejoin="miter" d="M 0.502391 0.499579 L 110.598324 0.499579 " stroke="#ffffff" stroke-width="1" stroke-opacity="1" stroke-miterlimit="4"/><g clip-path="url(#19d213a85e)"><path fill="#000000" d="M 68.914062 34.039062 L 70.945312 34.039062 L 70.945312 34.738281 L 68.914062 34.738281 Z M 68.914062 34.039062 " fill-opacity="1" fill-rule="nonzero"/></g><g fill="#4bcad6" fill-opacity="1"><g transform="translate(65.411074, 46.655542)"><g><path d="M 5.359375 -12.40625 C 6.585938 -12.40625 7.59375 -12.109375 8.375 -11.515625 C 9.15625 -10.929688 9.546875 -10.160156 9.546875 -9.203125 C 9.546875 -8.054688 8.773438 -6.695312 7.234375 -5.125 L 4.75 -2.46875 L 9.921875 -2.46875 L 9.921875 0 L 0.734375 0 L 0.734375 -2.015625 L 5.125 -6.65625 C 5.90625 -7.476562 6.296875 -8.179688 6.296875 -8.765625 C 6.296875 -9.117188 6.171875 -9.394531 5.921875 -9.59375 C 5.679688 -9.789062 5.34375 -9.890625 4.90625 -9.890625 C 3.894531 -9.890625 2.78125 -9.367188 1.5625 -8.328125 L 0.390625 -10.578125 C 2.023438 -11.796875 3.679688 -12.40625 5.359375 -12.40625 Z M 5.359375 -12.40625 "/></g></g></g><g fill="#4bcad6" fill-opacity="1"><g transform="translate(75.928997, 46.655542)"><g/></g></g><g fill="#4bcad6" fill-opacity="1"><g transform="translate(79.995927, 46.655542)"><g/></g></g><g fill="#4bcad6" fill-opacity="1"><g transform="translate(84.062857, 46.655542)"><g/></g></g><g fill="#4bcad6" fill-opacity="1"><g transform="translate(88.13005, 46.655542)"><g><path d="M 5.359375 -12.40625 C 6.585938 -12.40625 7.59375 -12.109375 8.375 -11.515625 C 9.15625 -10.929688 9.546875 -10.160156 9.546875 -9.203125 C 9.546875 -8.054688 8.773438 -6.695312 7.234375 -5.125 L 4.75 -2.46875 L 9.921875 -2.46875 L 9.921875 0 L 0.734375 0 L 0.734375 -2.015625 L 5.125 -6.65625 C 5.90625 -7.476562 6.296875 -8.179688 6.296875 -8.765625 C 6.296875 -9.117188 6.171875 -9.394531 5.921875 -9.59375 C 5.679688 -9.789062 5.34375 -9.890625 4.90625 -9.890625 C 3.894531 -9.890625 2.78125 -9.367188 1.5625 -8.328125 L 0.390625 -10.578125 C 2.023438 -11.796875 3.679688 -12.40625 5.359375 -12.40625 Z M 5.359375 -12.40625 "/></g></g></g><g fill="#4bcad6" fill-opacity="1"><g transform="translate(98.647971, 46.655542)"><g><path d="M 3.703125 -5.0625 L 6.296875 -5.0625 L 6.296875 -7.703125 L 9.1875 -7.703125 L 9.1875 -5.0625 L 10.859375 -5.0625 L 10.859375 -2.703125 L 9.1875 -2.703125 L 9.1875 0 L 6.296875 0 L 6.296875 -2.703125 L 0.46875 -2.703125 L 0.46875 -4.78125 L 4.34375 -12.265625 L 7.34375 -12.265625 Z M 3.703125 -5.0625 "/></g></g></g><g fill="#ff7e39" fill-opacity="1"><g transform="translate(4.941603, 15.050817)"><g><path d="M 1.515625 0 L 0.421875 0 L 0.421875 -4.28125 L 1.515625 -4.28125 Z M 1.515625 0 "/></g></g></g><g fill="#ff7e39" fill-opacity="1"><g transform="translate(6.883674, 15.050817)"><g><path d="M 0.421875 -4.28125 L 2.296875 -4.28125 C 2.835938 -4.28125 3.257812 -4.148438 3.5625 -3.890625 C 3.863281 -3.628906 4.015625 -3.257812 4.015625 -2.78125 C 4.015625 -2.28125 3.863281 -1.890625 3.5625 -1.609375 C 3.257812 -1.335938 2.835938 -1.203125 2.296875 -1.203125 L 1.515625 -1.203125 L 1.515625 0 L 0.421875 0 Z M 1.515625 -3.421875 L 1.515625 -2.0625 L 2.234375 -2.0625 C 2.472656 -2.0625 2.65625 -2.117188 2.78125 -2.234375 C 2.914062 -2.347656 2.984375 -2.519531 2.984375 -2.75 C 2.984375 -2.96875 2.914062 -3.132812 2.78125 -3.25 C 2.65625 -3.363281 2.472656 -3.421875 2.234375 -3.421875 Z M 1.515625 -3.421875 "/></g></g></g><g fill="#ff7e39" fill-opacity="1"><g transform="translate(11.036533, 15.050817)"><g><path d="M 4.375 0 L 3.421875 0 L 1.453125 -2.640625 L 1.453125 0 L 0.421875 0 L 0.421875 -4.28125 L 1.390625 -4.28125 L 3.359375 -1.640625 L 3.359375 -4.28125 L 4.375 -4.28125 Z M 4.375 0 "/></g></g></g><g fill="#ffffff" fill-opacity="1"><g transform="translate(15.837155, 15.050817)"><g/></g></g><g fill="#ffffff" fill-opacity="1"><g transform="translate(17.254012, 15.050817)"><g><path d="M 3.265625 -0.78125 L 1.40625 -0.78125 L 1.09375 0 L -0.03125 0 L 1.8125 -4.28125 L 2.9375 -4.28125 L 4.734375 0 L 3.578125 0 Z M 2.953125 -1.609375 L 2.34375 -3.1875 L 1.71875 -1.609375 Z M 2.953125 -1.609375 "/></g></g></g><g fill="#ffffff" fill-opacity="1"><g transform="translate(21.956515, 15.050817)"><g><path d="M 2.4375 -4.3125 C 2.75 -4.3125 3.054688 -4.242188 3.359375 -4.109375 C 3.671875 -3.984375 3.9375 -3.8125 4.15625 -3.59375 L 3.53125 -2.84375 C 3.382812 -3.019531 3.210938 -3.15625 3.015625 -3.25 C 2.828125 -3.351562 2.640625 -3.40625 2.453125 -3.40625 C 2.109375 -3.40625 1.820312 -3.285156 1.59375 -3.046875 C 1.375 -2.804688 1.265625 -2.507812 1.265625 -2.15625 C 1.265625 -1.800781 1.375 -1.503906 1.59375 -1.265625 C 1.820312 -1.023438 2.109375 -0.90625 2.453125 -0.90625 C 2.628906 -0.90625 2.8125 -0.945312 3 -1.03125 C 3.195312 -1.125 3.375 -1.25 3.53125 -1.40625 L 4.15625 -0.734375 C 3.925781 -0.492188 3.648438 -0.300781 3.328125 -0.15625 C 3.015625 -0.0195312 2.703125 0.046875 2.390625 0.046875 C 1.742188 0.046875 1.207031 -0.160156 0.78125 -0.578125 C 0.351562 -0.992188 0.140625 -1.519531 0.140625 -2.15625 C 0.140625 -2.769531 0.359375 -3.28125 0.796875 -3.6875 C 1.234375 -4.101562 1.78125 -4.3125 2.4375 -4.3125 Z M 2.4375 -4.3125 "/></g></g></g><g fill="#ffffff" fill-opacity="1"><g transform="translate(26.182659, 15.050817)"><g><path d="M 3.265625 -0.78125 L 1.40625 -0.78125 L 1.09375 0 L -0.03125 0 L 1.8125 -4.28125 L 2.9375 -4.28125 L 4.734375 0 L 3.578125 0 Z M 2.953125 -1.609375 L 2.34375 -3.1875 L 1.71875 -1.609375 Z M 2.953125 -1.609375 "/></g></g></g><g fill="#ffffff" fill-opacity="1"><g transform="translate(30.885162, 15.050817)"><g><path d="M 0.421875 -4.28125 L 2.265625 -4.28125 C 2.941406 -4.28125 3.488281 -4.082031 3.90625 -3.6875 C 4.332031 -3.289062 4.546875 -2.773438 4.546875 -2.140625 C 4.546875 -1.503906 4.328125 -0.988281 3.890625 -0.59375 C 3.460938 -0.195312 2.90625 0 2.21875 0 L 0.421875 0 Z M 1.515625 -3.40625 L 1.515625 -0.875 L 2.296875 -0.875 C 2.628906 -0.875 2.898438 -0.988281 3.109375 -1.21875 C 3.328125 -1.445312 3.4375 -1.75 3.4375 -2.125 C 3.4375 -2.5 3.320312 -2.804688 3.09375 -3.046875 C 2.875 -3.285156 2.585938 -3.40625 2.234375 -3.40625 Z M 1.515625 -3.40625 "/></g></g></g><g fill="#ffffff" fill-opacity="1"><g transform="translate(35.569342, 15.050817)"><g><path d="M 3.78125 -3.421875 L 1.515625 -3.421875 L 1.515625 -2.578125 L 3.5625 -2.578125 L 3.5625 -1.71875 L 1.515625 -1.71875 L 1.515625 -0.859375 L 3.84375 -0.859375 L 3.84375 0 L 0.421875 0 L 0.421875 -4.28125 L 3.78125 -4.28125 Z M 3.78125 -3.421875 "/></g></g></g><g fill="#ffffff" fill-opacity="1"><g transform="translate(39.685559, 15.050817)"><g><path d="M 5.125 0 L 4.171875 0 L 4.15625 -2.78125 L 3.140625 -0.421875 L 2.421875 -0.421875 L 1.40625 -2.78125 L 1.40625 0 L 0.421875 0 L 0.421875 -4.28125 L 1.625 -4.28125 L 2.78125 -1.734375 L 3.9375 -4.28125 L 5.125 -4.28125 Z M 5.125 0 "/></g></g></g><g fill="#ffffff" fill-opacity="1"><g transform="translate(45.243063, 15.050817)"><g><path d="M 2.640625 -1.375 L 2.640625 0 L 1.546875 0 L 1.546875 -1.34375 L -0.03125 -4.28125 L 1.0625 -4.28125 L 2.09375 -2.40625 L 3.09375 -4.28125 L 4.1875 -4.28125 Z M 2.640625 -1.375 "/></g></g></g><g fill="#ffffff" fill-opacity="1"><g transform="translate(49.398882, 15.050817)"><g/></g></g><g fill="#ffffff" fill-opacity="1"><g transform="translate(50.542494, 15.025158)"><g><path d="M 0.125 -1.21875 L 0.65625 -1.21875 C 0.800781 -1.21875 0.914062 -1.179688 1 -1.109375 C 1.09375 -1.035156 1.140625 -0.929688 1.140625 -0.796875 C 1.140625 -0.648438 1.09375 -0.535156 1 -0.453125 C 0.914062 -0.378906 0.800781 -0.34375 0.65625 -0.34375 L 0.4375 -0.34375 L 0.4375 0 L 0.125 0 Z M 0.4375 -0.96875 L 0.4375 -0.578125 L 0.640625 -0.578125 C 0.703125 -0.578125 0.75 -0.59375 0.78125 -0.625 C 0.820312 -0.664062 0.84375 -0.71875 0.84375 -0.78125 C 0.84375 -0.84375 0.820312 -0.890625 0.78125 -0.921875 C 0.75 -0.953125 0.703125 -0.96875 0.640625 -0.96875 Z M 0.4375 -0.96875 "/></g></g></g><g fill="#ffffff" fill-opacity="1"><g transform="translate(51.718009, 15.025158)"><g><path d="M 0.859375 0 L 0.671875 -0.34375 L 0.4375 -0.34375 L 0.4375 0 L 0.125 0 L 0.125 -1.21875 L 0.671875 -1.21875 C 0.828125 -1.21875 0.945312 -1.179688 1.03125 -1.109375 C 1.125 -1.035156 1.171875 -0.929688 1.171875 -0.796875 C 1.171875 -0.609375 1.097656 -0.476562 0.953125 -0.40625 L 1.203125 0 Z M 0.4375 -0.578125 L 0.671875 -0.578125 C 0.734375 -0.578125 0.78125 -0.59375 0.8125 -0.625 C 0.851562 -0.664062 0.875 -0.71875 0.875 -0.78125 C 0.875 -0.84375 0.851562 -0.890625 0.8125 -0.921875 C 0.78125 -0.953125 0.734375 -0.96875 0.671875 -0.96875 L 0.4375 -0.96875 Z M 0.4375 -0.578125 "/></g></g></g><g fill="#ffffff" fill-opacity="1"><g transform="translate(52.969586, 15.025158)"><g><path d="M 1.078125 -0.96875 L 0.4375 -0.96875 L 0.4375 -0.734375 L 1.015625 -0.734375 L 1.015625 -0.484375 L 0.4375 -0.484375 L 0.4375 -0.25 L 1.09375 -0.25 L 1.09375 0 L 0.125 0 L 0.125 -1.21875 L 1.078125 -1.21875 Z M 1.078125 -0.96875 "/></g></g></g><g fill="#ffffff" fill-opacity="1"><g transform="translate(54.134729, 15.025158)"><g><path d="M 0.59375 -1.234375 C 0.769531 -1.234375 0.925781 -1.1875 1.0625 -1.09375 L 0.953125 -0.84375 C 0.890625 -0.882812 0.820312 -0.914062 0.75 -0.9375 C 0.675781 -0.96875 0.613281 -0.984375 0.5625 -0.984375 C 0.46875 -0.984375 0.421875 -0.953125 0.421875 -0.890625 C 0.421875 -0.847656 0.441406 -0.816406 0.484375 -0.796875 C 0.535156 -0.773438 0.59375 -0.753906 0.65625 -0.734375 C 0.71875 -0.722656 0.78125 -0.703125 0.84375 -0.671875 C 0.90625 -0.648438 0.957031 -0.613281 1 -0.5625 C 1.039062 -0.507812 1.0625 -0.441406 1.0625 -0.359375 C 1.0625 -0.242188 1.015625 -0.148438 0.921875 -0.078125 C 0.835938 -0.015625 0.722656 0.015625 0.578125 0.015625 C 0.484375 0.015625 0.382812 0 0.28125 -0.03125 C 0.1875 -0.0703125 0.101562 -0.125 0.03125 -0.1875 L 0.15625 -0.421875 C 0.207031 -0.367188 0.273438 -0.320312 0.359375 -0.28125 C 0.441406 -0.25 0.519531 -0.234375 0.59375 -0.234375 C 0.632812 -0.234375 0.671875 -0.242188 0.703125 -0.265625 C 0.734375 -0.285156 0.75 -0.3125 0.75 -0.34375 C 0.75 -0.375 0.734375 -0.398438 0.703125 -0.421875 C 0.671875 -0.453125 0.628906 -0.472656 0.578125 -0.484375 C 0.535156 -0.492188 0.484375 -0.503906 0.421875 -0.515625 C 0.367188 -0.535156 0.316406 -0.554688 0.265625 -0.578125 C 0.222656 -0.609375 0.1875 -0.644531 0.15625 -0.6875 C 0.125 -0.738281 0.109375 -0.796875 0.109375 -0.859375 C 0.109375 -0.972656 0.148438 -1.0625 0.234375 -1.125 C 0.328125 -1.195312 0.445312 -1.234375 0.59375 -1.234375 Z M 0.59375 -1.234375 "/></g></g></g><g fill="#ffffff" fill-opacity="1"><g transform="translate(55.248011, 15.025158)"><g><path d="M 1.078125 -0.96875 L 0.4375 -0.96875 L 0.4375 -0.734375 L 1.015625 -0.734375 L 1.015625 -0.484375 L 0.4375 -0.484375 L 0.4375 -0.25 L 1.09375 -0.25 L 1.09375 0 L 0.125 0 L 0.125 -1.21875 L 1.078125 -1.21875 Z M 1.078125 -0.96875 "/></g></g></g><g fill="#ffffff" fill-opacity="1"><g transform="translate(56.413154, 15.025158)"><g><path d="M 1.234375 0 L 0.96875 0 L 0.40625 -0.75 L 0.40625 0 L 0.125 0 L 0.125 -1.21875 L 0.390625 -1.21875 L 0.953125 -0.46875 L 0.953125 -1.21875 L 1.234375 -1.21875 Z M 1.234375 0 "/></g></g></g><g fill="#ffffff" fill-opacity="1"><g transform="translate(57.77191, 15.025158)"><g><path d="M 1.046875 -0.96875 L 0.6875 -0.96875 L 0.6875 0 L 0.375 0 L 0.375 -0.96875 L 0.015625 -0.96875 L 0.015625 -1.21875 L 1.046875 -1.21875 Z M 1.046875 -0.96875 "/></g></g></g><g fill="#ffffff" fill-opacity="1"><g transform="translate(58.828144, 15.025158)"><g><path d="M 0.59375 -1.234375 C 0.769531 -1.234375 0.925781 -1.1875 1.0625 -1.09375 L 0.953125 -0.84375 C 0.890625 -0.882812 0.820312 -0.914062 0.75 -0.9375 C 0.675781 -0.96875 0.613281 -0.984375 0.5625 -0.984375 C 0.46875 -0.984375 0.421875 -0.953125 0.421875 -0.890625 C 0.421875 -0.847656 0.441406 -0.816406 0.484375 -0.796875 C 0.535156 -0.773438 0.59375 -0.753906 0.65625 -0.734375 C 0.71875 -0.722656 0.78125 -0.703125 0.84375 -0.671875 C 0.90625 -0.648438 0.957031 -0.613281 1 -0.5625 C 1.039062 -0.507812 1.0625 -0.441406 1.0625 -0.359375 C 1.0625 -0.242188 1.015625 -0.148438 0.921875 -0.078125 C 0.835938 -0.015625 0.722656 0.015625 0.578125 0.015625 C 0.484375 0.015625 0.382812 0 0.28125 -0.03125 C 0.1875 -0.0703125 0.101562 -0.125 0.03125 -0.1875 L 0.15625 -0.421875 C 0.207031 -0.367188 0.273438 -0.320312 0.359375 -0.28125 C 0.441406 -0.25 0.519531 -0.234375 0.59375 -0.234375 C 0.632812 -0.234375 0.671875 -0.242188 0.703125 -0.265625 C 0.734375 -0.285156 0.75 -0.3125 0.75 -0.34375 C 0.75 -0.375 0.734375 -0.398438 0.703125 -0.421875 C 0.671875 -0.453125 0.628906 -0.472656 0.578125 -0.484375 C 0.535156 -0.492188 0.484375 -0.503906 0.421875 -0.515625 C 0.367188 -0.535156 0.316406 -0.554688 0.265625 -0.578125 C 0.222656 -0.609375 0.1875 -0.644531 0.15625 -0.6875 C 0.125 -0.738281 0.109375 -0.796875 0.109375 -0.859375 C 0.109375 -0.972656 0.148438 -1.0625 0.234375 -1.125 C 0.328125 -1.195312 0.445312 -1.234375 0.59375 -1.234375 Z M 0.59375 -1.234375 "/></g></g></g><g clip-path="url(#a45e6451f7)"><path fill="#2db2bf" d="M 104.945312 38.839844 L 107.847656 38.839844 L 107.847656 39.785156 L 104.945312 39.785156 Z M 104.945312 38.839844 " fill-opacity="1" fill-rule="nonzero"/></g></svg>